<svg xmlns:dc="http://purl.org/dc/elements/1.1/" xmlns:cc="http://creativecommons.org/ns#" xmlns:rdf="http://www.w3.org/1999/02/22-rdf-syntax-ns#" xmlns:svg="http://www.w3.org/2000/svg" xmlns="http://www.w3.org/2000/svg" xmlns:sodipodi="http://sodipodi.sourceforge.net/DTD/sodipodi-0.dtd" xmlns:inkscape="http://www.inkscape.org/namespaces/inkscape" viewBox="0 0 749.9492 937.2337375" version="1.1" x="0px" y="0px"><g transform="translate(922.80641,-131.69874)"><path style="" d="m -591.6072,879.65679 c -66.45595,-7.96572 -126.91135,-32.32875 -183.125,-73.79789 -20.34445,-15.00821 -57.32774,-51.9915 -72.33595,-72.33595 -41.99931,-56.93232 -66.11987,-117.29815 -73.91799,-184.99234 -2.42702,-21.06851 -2.42702,-62.69681 0,-83.76532 7.79812,-67.69419 31.91868,-128.06002 73.91799,-184.99234 15.00821,-20.34445 51.9915,-57.32774 72.33595,-72.33595 56.93232,-41.99931 117.29815,-66.11988 184.99234,-73.91799 21.06851,-2.42702 62.69681,-2.42702 83.76532,0 67.69419,7.79811 128.06001,31.91868 184.99234,73.91799 20.34445,15.00821 57.32774,51.9915 72.33595,72.33595 41.99931,56.93232 66.11987,117.29815 73.91799,184.99234 1.07271,9.312 1.87106,27.18265 1.87106,41.88266 0,14.70001 -0.79835,32.57066 -1.87106,41.88266 -7.79812,67.69419 -31.91868,128.06001 -73.91799,184.99234 -15.00821,20.34445 -51.9915,57.32774 -72.33595,72.33595 -56.93233,41.99931 -117.29815,66.11987 -184.99234,73.91799 -20.22186,2.32949 -65.72886,2.26566 -85.63266,-0.12013 z m -101.25,-291.13384 0,-33.125 204.375,0 204.375,0 0,-48.75 0,-48.75 -204.375,0 -204.375,0 0,-33.125 c 0,-19.96477 -0.4693,-33.125 -1.18125,-33.125 -0.64969,0 -3.60281,2.47689 -6.5625,5.5042 -7.42018,7.58971 -107.07751,100.73685 -111.32296,104.0507 -1.88832,1.47395 -3.43329,3.31925 -3.43329,4.10069 0,0.78144 2.09105,3.23172 4.64677,5.4451 9.9332,8.60258 114.10323,108.91615 114.10323,109.87902 0,0.56117 0.84375,1.02029 1.875,1.02029 1.6195,0 1.875,-4.51389 1.875,-33.125 z" fill="#000000"/></g></svg>